<mxfile host="app.diagrams.net" modified="2022-07-20T00:27:25.719Z" agent="5.0 (Windows NT 10.0; Win64; x64) AppleWebKit/537.36 (KHTML, like Gecko) Chrome/103.0.0.0 Safari/537.36" etag="M_I5e3omH7vrir0wZbTI" version="20.0.3" type="github">
  <diagram id="C5RBs43oDa-KdzZeNtuy" name="Page-1">
    <mxGraphModel dx="1069" dy="598" grid="1" gridSize="10" guides="1" tooltips="1" connect="1" arrows="1" fold="1" page="1" pageScale="1" pageWidth="827" pageHeight="1169" math="0" shadow="0">
      <root>
        <mxCell id="WIyWlLk6GJQsqaUBKTNV-0" />
        <mxCell id="WIyWlLk6GJQsqaUBKTNV-1" parent="WIyWlLk6GJQsqaUBKTNV-0" />
        <mxCell id="WIyWlLk6GJQsqaUBKTNV-2" value="" style="rounded=0;html=1;jettySize=auto;orthogonalLoop=1;fontSize=11;endArrow=block;endFill=0;endSize=8;strokeWidth=1;shadow=0;labelBackgroundColor=none;edgeStyle=orthogonalEdgeStyle;" parent="WIyWlLk6GJQsqaUBKTNV-1" source="WIyWlLk6GJQsqaUBKTNV-3" target="WIyWlLk6GJQsqaUBKTNV-6" edge="1">
          <mxGeometry relative="1" as="geometry" />
        </mxCell>
        <mxCell id="WIyWlLk6GJQsqaUBKTNV-3" value="Create LookupTable" style="rounded=1;whiteSpace=wrap;html=1;fontSize=12;glass=0;strokeWidth=1;shadow=0;" parent="WIyWlLk6GJQsqaUBKTNV-1" vertex="1">
          <mxGeometry x="70" y="30" width="120" height="40" as="geometry" />
        </mxCell>
        <mxCell id="WIyWlLk6GJQsqaUBKTNV-4" value="Yes" style="rounded=0;html=1;jettySize=auto;orthogonalLoop=1;fontSize=11;endArrow=block;endFill=0;endSize=8;strokeWidth=1;shadow=0;labelBackgroundColor=none;edgeStyle=orthogonalEdgeStyle;entryX=0.5;entryY=0;entryDx=0;entryDy=0;" parent="WIyWlLk6GJQsqaUBKTNV-1" source="WIyWlLk6GJQsqaUBKTNV-6" target="bPVX0rqQkUsGm80GQ1HU-10" edge="1">
          <mxGeometry y="20" relative="1" as="geometry">
            <mxPoint as="offset" />
            <mxPoint x="130" y="240" as="targetPoint" />
          </mxGeometry>
        </mxCell>
        <mxCell id="WIyWlLk6GJQsqaUBKTNV-5" value="No" style="edgeStyle=orthogonalEdgeStyle;rounded=0;html=1;jettySize=auto;orthogonalLoop=1;fontSize=11;endArrow=block;endFill=0;endSize=8;strokeWidth=1;shadow=0;labelBackgroundColor=none;entryX=0;entryY=0.5;entryDx=0;entryDy=0;" parent="WIyWlLk6GJQsqaUBKTNV-1" source="WIyWlLk6GJQsqaUBKTNV-6" target="bPVX0rqQkUsGm80GQ1HU-0" edge="1">
          <mxGeometry y="10" relative="1" as="geometry">
            <mxPoint as="offset" />
            <mxPoint x="230" y="160" as="targetPoint" />
          </mxGeometry>
        </mxCell>
        <mxCell id="WIyWlLk6GJQsqaUBKTNV-6" value="dim is 1 ?" style="rhombus;whiteSpace=wrap;html=1;shadow=0;fontFamily=Helvetica;fontSize=12;align=center;strokeWidth=1;spacing=6;spacingTop=-4;" parent="WIyWlLk6GJQsqaUBKTNV-1" vertex="1">
          <mxGeometry x="80" y="120" width="100" height="80" as="geometry" />
        </mxCell>
        <mxCell id="WIyWlLk6GJQsqaUBKTNV-11" value="return evaluate result" style="rounded=1;whiteSpace=wrap;html=1;fontSize=12;glass=0;strokeWidth=1;shadow=0;" parent="WIyWlLk6GJQsqaUBKTNV-1" vertex="1">
          <mxGeometry x="70" y="470" width="120" height="40" as="geometry" />
        </mxCell>
        <mxCell id="bPVX0rqQkUsGm80GQ1HU-0" value="dim is 2 ?" style="rhombus;whiteSpace=wrap;html=1;shadow=0;fontFamily=Helvetica;fontSize=12;align=center;strokeWidth=1;spacing=6;spacingTop=-4;" vertex="1" parent="WIyWlLk6GJQsqaUBKTNV-1">
          <mxGeometry x="230" y="120" width="100" height="80" as="geometry" />
        </mxCell>
        <mxCell id="bPVX0rqQkUsGm80GQ1HU-2" value="Yes" style="rounded=0;html=1;jettySize=auto;orthogonalLoop=1;fontSize=11;endArrow=block;endFill=0;endSize=8;strokeWidth=1;shadow=0;labelBackgroundColor=none;edgeStyle=orthogonalEdgeStyle;exitX=0.5;exitY=1;exitDx=0;exitDy=0;entryX=0.5;entryY=0;entryDx=0;entryDy=0;" edge="1" parent="WIyWlLk6GJQsqaUBKTNV-1" source="bPVX0rqQkUsGm80GQ1HU-0" target="bPVX0rqQkUsGm80GQ1HU-21">
          <mxGeometry y="20" relative="1" as="geometry">
            <mxPoint as="offset" />
            <mxPoint x="279.89" y="200" as="sourcePoint" />
            <mxPoint x="279.89" y="240" as="targetPoint" />
          </mxGeometry>
        </mxCell>
        <mxCell id="bPVX0rqQkUsGm80GQ1HU-4" value="No" style="edgeStyle=orthogonalEdgeStyle;rounded=0;html=1;jettySize=auto;orthogonalLoop=1;fontSize=11;endArrow=block;endFill=0;endSize=8;strokeWidth=1;shadow=0;labelBackgroundColor=none;entryX=0;entryY=0.5;entryDx=0;entryDy=0;exitX=1;exitY=0.5;exitDx=0;exitDy=0;" edge="1" parent="WIyWlLk6GJQsqaUBKTNV-1" source="bPVX0rqQkUsGm80GQ1HU-0" target="bPVX0rqQkUsGm80GQ1HU-5">
          <mxGeometry x="-0.2032" y="10" relative="1" as="geometry">
            <mxPoint as="offset" />
            <mxPoint x="330" y="159.83" as="sourcePoint" />
            <mxPoint x="380" y="159.83" as="targetPoint" />
          </mxGeometry>
        </mxCell>
        <mxCell id="bPVX0rqQkUsGm80GQ1HU-5" value="dim is 2 ?" style="rhombus;whiteSpace=wrap;html=1;shadow=0;fontFamily=Helvetica;fontSize=12;align=center;strokeWidth=1;spacing=6;spacingTop=-4;" vertex="1" parent="WIyWlLk6GJQsqaUBKTNV-1">
          <mxGeometry x="380" y="120" width="100" height="80" as="geometry" />
        </mxCell>
        <mxCell id="bPVX0rqQkUsGm80GQ1HU-6" value="Yes" style="rounded=0;html=1;jettySize=auto;orthogonalLoop=1;fontSize=11;endArrow=block;endFill=0;endSize=8;strokeWidth=1;shadow=0;labelBackgroundColor=none;edgeStyle=orthogonalEdgeStyle;exitX=0.5;exitY=1;exitDx=0;exitDy=0;entryX=0.5;entryY=0;entryDx=0;entryDy=0;" edge="1" parent="WIyWlLk6GJQsqaUBKTNV-1" source="bPVX0rqQkUsGm80GQ1HU-5" target="bPVX0rqQkUsGm80GQ1HU-28">
          <mxGeometry y="20" relative="1" as="geometry">
            <mxPoint as="offset" />
            <mxPoint x="429.89" y="200" as="sourcePoint" />
            <mxPoint x="429.8899999999999" y="240" as="targetPoint" />
          </mxGeometry>
        </mxCell>
        <mxCell id="bPVX0rqQkUsGm80GQ1HU-7" value="No" style="edgeStyle=orthogonalEdgeStyle;rounded=0;html=1;jettySize=auto;orthogonalLoop=1;fontSize=11;endArrow=block;endFill=0;endSize=8;strokeWidth=1;shadow=0;labelBackgroundColor=none;entryX=0;entryY=0.5;entryDx=0;entryDy=0;exitX=1;exitY=0.5;exitDx=0;exitDy=0;" edge="1" parent="WIyWlLk6GJQsqaUBKTNV-1" source="bPVX0rqQkUsGm80GQ1HU-5" target="bPVX0rqQkUsGm80GQ1HU-9">
          <mxGeometry x="-0.2032" y="10" relative="1" as="geometry">
            <mxPoint as="offset" />
            <mxPoint x="480" y="159.83" as="sourcePoint" />
            <mxPoint x="529.9999999999998" y="159.82999999999993" as="targetPoint" />
          </mxGeometry>
        </mxCell>
        <mxCell id="bPVX0rqQkUsGm80GQ1HU-9" value="print error message “invalid dim”" style="rounded=1;whiteSpace=wrap;html=1;fontSize=12;glass=0;strokeWidth=1;shadow=0;" vertex="1" parent="WIyWlLk6GJQsqaUBKTNV-1">
          <mxGeometry x="530" y="140" width="120" height="40" as="geometry" />
        </mxCell>
        <mxCell id="bPVX0rqQkUsGm80GQ1HU-13" style="edgeStyle=orthogonalEdgeStyle;rounded=0;orthogonalLoop=1;jettySize=auto;html=1;exitX=0.5;exitY=1;exitDx=0;exitDy=0;entryX=0.5;entryY=0;entryDx=0;entryDy=0;" edge="1" parent="WIyWlLk6GJQsqaUBKTNV-1" source="bPVX0rqQkUsGm80GQ1HU-10" target="bPVX0rqQkUsGm80GQ1HU-12">
          <mxGeometry relative="1" as="geometry" />
        </mxCell>
        <mxCell id="bPVX0rqQkUsGm80GQ1HU-10" value="populate index1" style="rounded=1;whiteSpace=wrap;html=1;absoluteArcSize=1;arcSize=14;strokeWidth=2;" vertex="1" parent="WIyWlLk6GJQsqaUBKTNV-1">
          <mxGeometry x="75" y="240" width="110" height="50" as="geometry" />
        </mxCell>
        <mxCell id="bPVX0rqQkUsGm80GQ1HU-17" style="edgeStyle=orthogonalEdgeStyle;rounded=0;orthogonalLoop=1;jettySize=auto;html=1;exitX=0.5;exitY=1;exitDx=0;exitDy=0;entryX=0.5;entryY=0;entryDx=0;entryDy=0;" edge="1" parent="WIyWlLk6GJQsqaUBKTNV-1" source="bPVX0rqQkUsGm80GQ1HU-12" target="bPVX0rqQkUsGm80GQ1HU-16">
          <mxGeometry relative="1" as="geometry" />
        </mxCell>
        <mxCell id="bPVX0rqQkUsGm80GQ1HU-12" value="populate value table" style="rounded=1;whiteSpace=wrap;html=1;absoluteArcSize=1;arcSize=14;strokeWidth=2;" vertex="1" parent="WIyWlLk6GJQsqaUBKTNV-1">
          <mxGeometry x="75" y="320" width="110" height="50" as="geometry" />
        </mxCell>
        <mxCell id="bPVX0rqQkUsGm80GQ1HU-18" style="edgeStyle=orthogonalEdgeStyle;rounded=0;orthogonalLoop=1;jettySize=auto;html=1;exitX=0.5;exitY=1;exitDx=0;exitDy=0;entryX=0.5;entryY=0;entryDx=0;entryDy=0;" edge="1" parent="WIyWlLk6GJQsqaUBKTNV-1" source="bPVX0rqQkUsGm80GQ1HU-16" target="WIyWlLk6GJQsqaUBKTNV-11">
          <mxGeometry relative="1" as="geometry" />
        </mxCell>
        <mxCell id="bPVX0rqQkUsGm80GQ1HU-16" value="call Evaluate1 function" style="rounded=1;whiteSpace=wrap;html=1;absoluteArcSize=1;arcSize=14;strokeWidth=2;" vertex="1" parent="WIyWlLk6GJQsqaUBKTNV-1">
          <mxGeometry x="75" y="400" width="110" height="50" as="geometry" />
        </mxCell>
        <mxCell id="bPVX0rqQkUsGm80GQ1HU-19" value="return evaluate result" style="rounded=1;whiteSpace=wrap;html=1;fontSize=12;glass=0;strokeWidth=1;shadow=0;" vertex="1" parent="WIyWlLk6GJQsqaUBKTNV-1">
          <mxGeometry x="220" y="470" width="120" height="40" as="geometry" />
        </mxCell>
        <mxCell id="bPVX0rqQkUsGm80GQ1HU-20" style="edgeStyle=orthogonalEdgeStyle;rounded=0;orthogonalLoop=1;jettySize=auto;html=1;exitX=0.5;exitY=1;exitDx=0;exitDy=0;entryX=0.5;entryY=0;entryDx=0;entryDy=0;" edge="1" parent="WIyWlLk6GJQsqaUBKTNV-1" source="bPVX0rqQkUsGm80GQ1HU-21" target="bPVX0rqQkUsGm80GQ1HU-23">
          <mxGeometry relative="1" as="geometry" />
        </mxCell>
        <mxCell id="bPVX0rqQkUsGm80GQ1HU-21" value="populate index1，indx2" style="rounded=1;whiteSpace=wrap;html=1;absoluteArcSize=1;arcSize=14;strokeWidth=2;" vertex="1" parent="WIyWlLk6GJQsqaUBKTNV-1">
          <mxGeometry x="225" y="240" width="110" height="50" as="geometry" />
        </mxCell>
        <mxCell id="bPVX0rqQkUsGm80GQ1HU-22" style="edgeStyle=orthogonalEdgeStyle;rounded=0;orthogonalLoop=1;jettySize=auto;html=1;exitX=0.5;exitY=1;exitDx=0;exitDy=0;entryX=0.5;entryY=0;entryDx=0;entryDy=0;" edge="1" parent="WIyWlLk6GJQsqaUBKTNV-1" source="bPVX0rqQkUsGm80GQ1HU-23" target="bPVX0rqQkUsGm80GQ1HU-25">
          <mxGeometry relative="1" as="geometry" />
        </mxCell>
        <mxCell id="bPVX0rqQkUsGm80GQ1HU-23" value="populate value table" style="rounded=1;whiteSpace=wrap;html=1;absoluteArcSize=1;arcSize=14;strokeWidth=2;" vertex="1" parent="WIyWlLk6GJQsqaUBKTNV-1">
          <mxGeometry x="225" y="320" width="110" height="50" as="geometry" />
        </mxCell>
        <mxCell id="bPVX0rqQkUsGm80GQ1HU-24" style="edgeStyle=orthogonalEdgeStyle;rounded=0;orthogonalLoop=1;jettySize=auto;html=1;exitX=0.5;exitY=1;exitDx=0;exitDy=0;entryX=0.5;entryY=0;entryDx=0;entryDy=0;" edge="1" parent="WIyWlLk6GJQsqaUBKTNV-1" source="bPVX0rqQkUsGm80GQ1HU-25" target="bPVX0rqQkUsGm80GQ1HU-19">
          <mxGeometry relative="1" as="geometry" />
        </mxCell>
        <mxCell id="bPVX0rqQkUsGm80GQ1HU-25" value="call Evaluate2 function" style="rounded=1;whiteSpace=wrap;html=1;absoluteArcSize=1;arcSize=14;strokeWidth=2;" vertex="1" parent="WIyWlLk6GJQsqaUBKTNV-1">
          <mxGeometry x="225" y="400" width="110" height="50" as="geometry" />
        </mxCell>
        <mxCell id="bPVX0rqQkUsGm80GQ1HU-26" value="return evaluate result" style="rounded=1;whiteSpace=wrap;html=1;fontSize=12;glass=0;strokeWidth=1;shadow=0;" vertex="1" parent="WIyWlLk6GJQsqaUBKTNV-1">
          <mxGeometry x="370" y="470" width="120" height="40" as="geometry" />
        </mxCell>
        <mxCell id="bPVX0rqQkUsGm80GQ1HU-27" style="edgeStyle=orthogonalEdgeStyle;rounded=0;orthogonalLoop=1;jettySize=auto;html=1;exitX=0.5;exitY=1;exitDx=0;exitDy=0;entryX=0.5;entryY=0;entryDx=0;entryDy=0;" edge="1" parent="WIyWlLk6GJQsqaUBKTNV-1" source="bPVX0rqQkUsGm80GQ1HU-28" target="bPVX0rqQkUsGm80GQ1HU-30">
          <mxGeometry relative="1" as="geometry" />
        </mxCell>
        <mxCell id="bPVX0rqQkUsGm80GQ1HU-28" value="populate index1，index2，index3" style="rounded=1;whiteSpace=wrap;html=1;absoluteArcSize=1;arcSize=14;strokeWidth=2;" vertex="1" parent="WIyWlLk6GJQsqaUBKTNV-1">
          <mxGeometry x="375" y="240" width="110" height="50" as="geometry" />
        </mxCell>
        <mxCell id="bPVX0rqQkUsGm80GQ1HU-29" style="edgeStyle=orthogonalEdgeStyle;rounded=0;orthogonalLoop=1;jettySize=auto;html=1;exitX=0.5;exitY=1;exitDx=0;exitDy=0;entryX=0.5;entryY=0;entryDx=0;entryDy=0;" edge="1" parent="WIyWlLk6GJQsqaUBKTNV-1" source="bPVX0rqQkUsGm80GQ1HU-30" target="bPVX0rqQkUsGm80GQ1HU-32">
          <mxGeometry relative="1" as="geometry" />
        </mxCell>
        <mxCell id="bPVX0rqQkUsGm80GQ1HU-30" value="populate value table" style="rounded=1;whiteSpace=wrap;html=1;absoluteArcSize=1;arcSize=14;strokeWidth=2;" vertex="1" parent="WIyWlLk6GJQsqaUBKTNV-1">
          <mxGeometry x="375" y="320" width="110" height="50" as="geometry" />
        </mxCell>
        <mxCell id="bPVX0rqQkUsGm80GQ1HU-31" style="edgeStyle=orthogonalEdgeStyle;rounded=0;orthogonalLoop=1;jettySize=auto;html=1;exitX=0.5;exitY=1;exitDx=0;exitDy=0;entryX=0.5;entryY=0;entryDx=0;entryDy=0;" edge="1" parent="WIyWlLk6GJQsqaUBKTNV-1" source="bPVX0rqQkUsGm80GQ1HU-32" target="bPVX0rqQkUsGm80GQ1HU-26">
          <mxGeometry relative="1" as="geometry" />
        </mxCell>
        <mxCell id="bPVX0rqQkUsGm80GQ1HU-32" value="call Evaluate3 function" style="rounded=1;whiteSpace=wrap;html=1;absoluteArcSize=1;arcSize=14;strokeWidth=2;" vertex="1" parent="WIyWlLk6GJQsqaUBKTNV-1">
          <mxGeometry x="375" y="400" width="110" height="50" as="geometry" />
        </mxCell>
      </root>
    </mxGraphModel>
  </diagram>
</mxfile>
